<svg id="svg" version="1.1" xmlns="http://www.w3.org/2000/svg" xmlns:xlink="http://www.w3.org/1999/xlink" width="83" height="83" viewBox="0, 0, 400,400"><g id="svgg"><path id="path0" d="M1.413 1.413 L 0.000 2.827 0.000 50.016 L 0.000 97.206 2.831 100.003 C 4.387 101.541,5.842 102.800,6.062 102.800 C 6.282 102.800,7.124 103.475,7.931 104.300 C 8.739 105.125,10.030 106.279,10.800 106.863 C 11.570 107.448,13.003 108.663,13.984 109.563 C 14.965 110.464,15.922 111.200,16.110 111.200 C 16.298 111.200,17.295 112.055,18.326 113.100 C 19.357 114.145,20.695 115.255,21.300 115.568 C 21.905 115.880,22.400 116.285,22.400 116.468 C 22.400 116.650,22.760 116.800,23.200 116.800 C 23.640 116.800,24.000 116.980,24.000 117.200 C 24.000 117.773,28.436 117.695,29.717 117.100 C 30.309 116.825,30.795 116.465,30.797 116.300 C 30.799 116.135,31.094 116.000,31.453 116.000 C 31.812 116.000,32.427 115.631,32.818 115.179 C 33.521 114.369,33.677 114.506,44.916 125.727 C 53.093 133.891,56.626 137.159,57.451 137.323 C 58.083 137.449,59.054 137.666,59.608 137.805 C 60.791 138.102,61.383 137.635,68.408 130.863 C 72.416 127.001,73.225 126.387,73.858 126.736 C 74.904 127.315,105.200 157.740,105.199 158.212 C 105.199 158.425,104.201 160.580,102.982 163.000 C 95.542 177.772,96.837 190.256,106.745 199.273 C 116.314 207.982,126.489 208.492,143.600 201.124 C 144.150 200.887,145.005 200.537,145.500 200.346 C 147.249 199.673,148.608 199.103,149.295 198.753 C 149.677 198.559,150.180 198.400,150.414 198.400 C 150.648 198.400,151.584 198.040,152.494 197.600 C 153.405 197.160,154.371 196.800,154.642 196.800 C 155.642 196.800,155.410 195.697,153.296 190.411 C 150.724 183.979,150.824 184.108,149.063 184.943 C 148.302 185.305,147.554 185.600,147.400 185.600 C 147.246 185.600,146.464 185.888,145.660 186.241 C 144.857 186.593,143.840 187.019,143.400 187.187 C 142.035 187.709,140.232 188.477,139.505 188.847 C 139.123 189.041,138.626 189.200,138.401 189.200 C 138.176 189.200,137.138 189.578,136.096 190.040 C 134.260 190.853,133.391 191.215,131.500 191.950 C 131.005 192.143,130.083 192.509,129.451 192.764 C 123.799 195.044,115.273 191.424,112.526 185.578 C 110.037 180.282,110.351 177.870,114.709 168.800 C 118.029 161.893,118.200 161.372,118.198 158.200 C 118.195 152.516,118.316 152.672,98.634 132.902 L 82.608 116.804 87.261 112.102 C 96.003 103.266,96.186 103.908,80.437 88.200 C 74.481 82.260,69.606 77.249,69.604 77.064 C 69.602 76.879,70.233 75.988,71.006 75.085 C 72.994 72.762,73.726 68.225,72.568 65.404 C 72.231 64.585,66.755 59.041,65.289 58.036 C 64.837 57.725,64.226 57.008,63.933 56.443 C 63.640 55.877,62.320 54.306,61.000 52.952 C 59.680 51.597,56.620 48.382,54.200 45.807 C 51.780 43.232,47.910 39.172,45.600 36.784 C 43.290 34.397,40.320 31.243,39.000 29.774 C 37.680 28.306,33.945 24.422,30.700 21.143 C 27.455 17.864,24.800 15.003,24.800 14.785 C 24.800 14.567,21.562 11.151,17.605 7.194 L 10.410 -0.000 6.618 -0.000 L 2.827 -0.000 1.413 1.413 M33.859 45.200 C 42.668 54.550,51.554 63.969,53.606 66.130 L 57.336 70.061 41.970 85.430 C 33.519 93.884,26.423 100.799,26.202 100.799 C 25.781 100.797,25.048 100.199,17.834 93.972 L 13.400 90.145 13.297 57.572 C 13.240 39.658,13.295 24.734,13.419 24.408 C 13.683 23.718,12.159 22.167,33.859 45.200 M127.496 26.237 C 127.263 26.471,125.808 26.710,120.200 27.438 C 119.320 27.552,118.240 27.802,117.800 27.993 C 116.962 28.356,115.486 28.710,113.300 29.072 C 112.585 29.191,112.000 29.448,112.000 29.644 C 112.000 29.840,111.561 30.000,111.024 30.000 C 110.487 30.000,109.936 30.180,109.800 30.400 C 109.664 30.620,109.113 30.800,108.576 30.800 C 108.039 30.800,107.600 30.980,107.600 31.200 C 107.600 31.420,107.060 31.600,106.400 31.600 C 105.740 31.600,105.200 31.780,105.200 32.000 C 105.200 32.220,104.840 32.400,104.400 32.400 C 103.960 32.400,103.600 32.580,103.600 32.800 C 103.600 33.020,103.240 33.200,102.800 33.200 C 102.360 33.200,102.000 33.380,102.000 33.600 C 102.000 33.820,101.766 34.000,101.480 34.000 C 100.744 34.000,98.807 34.941,98.803 35.300 C 98.801 35.465,98.440 35.600,98.000 35.600 C 97.560 35.600,97.200 35.780,97.200 36.000 C 97.200 36.220,96.840 36.400,96.400 36.400 C 95.960 36.400,95.600 36.580,95.600 36.800 C 95.600 37.020,95.240 37.200,94.800 37.200 C 94.360 37.200,94.000 37.380,94.000 37.600 C 94.000 37.820,93.770 38.000,93.488 38.000 C 93.207 38.000,92.717 38.360,92.400 38.800 C 92.083 39.240,91.543 39.600,91.200 39.600 C 90.857 39.600,90.317 39.960,90.000 40.400 C 89.683 40.840,89.180 41.200,88.883 41.200 C 88.586 41.200,88.092 41.425,87.785 41.700 C 86.481 42.870,86.012 43.200,85.657 43.200 C 85.450 43.200,84.362 44.100,83.239 45.200 C 82.115 46.300,81.061 47.200,80.896 47.200 C 80.543 47.200,77.952 49.642,76.100 51.720 C 73.852 54.242,75.941 58.800,79.344 58.800 C 79.755 58.800,81.130 59.700,82.400 60.800 C 85.249 63.268,84.600 63.402,88.718 59.500 C 95.079 53.471,103.004 48.253,109.900 45.553 C 110.395 45.359,111.295 44.996,111.900 44.746 C 112.505 44.497,113.360 44.146,113.800 43.965 C 124.303 39.664,142.618 38.766,154.400 41.974 C 159.610 43.392,161.361 43.969,165.400 45.597 C 165.840 45.774,166.830 46.136,167.600 46.400 C 168.370 46.664,169.360 47.031,169.800 47.214 C 173.007 48.551,179.916 50.407,184.600 51.190 C 186.140 51.447,188.375 51.825,189.567 52.029 C 192.376 52.510,207.624 52.510,210.433 52.029 C 211.625 51.825,213.860 51.447,215.400 51.190 C 221.030 50.248,225.777 48.891,233.600 45.988 C 242.362 42.736,243.991 42.238,249.297 41.193 C 288.468 33.483,326.063 60.045,332.531 100.000 C 334.935 114.855,332.332 140.985,326.333 162.200 C 325.680 164.508,322.034 175.637,321.582 176.700 C 321.372 177.195,321.038 178.005,320.840 178.500 C 320.642 178.995,320.102 180.253,319.640 181.296 C 319.178 182.338,318.800 183.313,318.800 183.461 C 318.800 184.210,312.457 197.446,310.317 201.164 C 309.609 202.394,308.826 203.760,308.578 204.200 C 308.329 204.640,307.737 205.675,307.263 206.500 C 306.788 207.325,306.019 208.675,305.553 209.500 C 305.087 210.325,304.388 211.450,304.000 212.000 C 301.233 215.915,300.310 218.326,299.638 223.400 C 299.405 225.160,299.028 227.950,298.801 229.600 C 296.975 242.878,296.286 248.002,295.801 251.889 C 295.493 254.357,295.121 257.012,294.976 257.789 C 294.721 259.144,294.758 259.200,295.889 259.200 C 297.955 259.200,301.666 260.106,301.879 260.663 C 302.029 261.053,303.001 261.200,305.443 261.200 L 308.800 261.200 308.800 258.624 C 308.800 257.207,308.980 255.936,309.200 255.800 C 309.420 255.664,309.600 254.303,309.600 252.776 C 309.600 251.192,309.772 250.000,310.000 250.000 C 310.231 250.000,310.400 248.733,310.400 247.000 C 310.400 245.267,310.569 244.000,310.800 244.000 C 311.025 244.000,311.200 242.875,311.200 241.424 C 311.200 240.007,311.380 238.736,311.600 238.600 C 311.820 238.464,312.000 237.204,312.000 235.800 C 312.000 234.396,312.180 233.136,312.400 233.000 C 312.620 232.864,312.800 231.413,312.800 229.776 C 312.800 228.059,312.969 226.800,313.200 226.800 C 313.420 226.800,313.600 225.900,313.600 224.800 C 313.600 223.700,313.780 222.800,314.000 222.800 C 314.220 222.800,314.400 222.530,314.400 222.200 C 314.400 221.870,314.580 221.600,314.800 221.600 C 315.020 221.600,315.200 221.322,315.200 220.983 C 315.200 220.644,315.560 219.980,316.000 219.508 C 316.440 219.036,316.800 218.413,316.800 218.125 C 316.800 217.836,316.980 217.600,317.200 217.600 C 317.420 217.600,317.600 217.322,317.600 216.983 C 317.600 216.644,317.960 215.980,318.400 215.508 C 318.840 215.036,319.200 214.413,319.200 214.125 C 319.200 213.836,319.380 213.600,319.600 213.600 C 319.820 213.600,320.000 213.240,320.000 212.800 C 320.000 212.360,320.180 212.000,320.400 212.000 C 320.620 212.000,320.800 211.722,320.800 211.383 C 320.800 211.044,321.150 210.391,321.578 209.932 C 322.549 208.890,325.200 203.574,325.200 202.670 C 325.200 202.302,325.380 202.000,325.600 202.000 C 325.820 202.000,326.000 201.640,326.000 201.200 C 326.000 200.760,326.180 200.400,326.400 200.400 C 326.620 200.400,326.800 200.040,326.800 199.600 C 326.800 199.160,326.980 198.800,327.200 198.800 C 327.420 198.800,327.600 198.440,327.600 198.000 C 327.600 197.560,327.780 197.200,328.000 197.200 C 328.220 197.200,328.400 196.840,328.400 196.400 C 328.400 195.960,328.580 195.600,328.800 195.600 C 329.020 195.600,329.200 195.240,329.200 194.800 C 329.200 194.360,329.380 194.000,329.600 194.000 C 329.820 194.000,330.000 193.640,330.000 193.200 C 330.000 192.760,330.180 192.400,330.400 192.400 C 330.620 192.400,330.800 191.950,330.800 191.400 C 330.800 190.850,330.980 190.400,331.200 190.400 C 331.420 190.400,331.600 190.051,331.600 189.624 C 331.600 189.197,331.780 188.736,332.000 188.600 C 332.220 188.464,332.400 187.913,332.400 187.376 C 332.400 186.839,332.580 186.400,332.800 186.400 C 333.020 186.400,333.200 186.040,333.200 185.600 C 333.200 185.160,333.380 184.800,333.600 184.800 C 333.820 184.800,334.000 184.260,334.000 183.600 C 334.000 182.940,334.180 182.400,334.400 182.400 C 334.620 182.400,334.800 182.040,334.800 181.600 C 334.800 181.160,334.980 180.800,335.200 180.800 C 335.420 180.800,335.600 180.260,335.600 179.600 C 335.600 178.940,335.780 178.400,336.000 178.400 C 336.220 178.400,336.400 177.860,336.400 177.200 C 336.400 176.540,336.580 176.000,336.800 176.000 C 337.020 176.000,337.200 175.471,337.200 174.824 C 337.200 174.177,337.380 173.536,337.600 173.400 C 337.820 173.264,338.000 172.724,338.000 172.200 C 338.000 171.676,338.180 171.136,338.400 171.000 C 338.620 170.864,338.800 170.324,338.800 169.800 C 338.800 169.276,338.980 168.736,339.200 168.600 C 339.420 168.464,339.600 167.834,339.600 167.200 C 339.600 166.566,339.780 165.936,340.000 165.800 C 340.220 165.664,340.400 164.944,340.400 164.200 C 340.400 163.456,340.562 162.747,340.759 162.625 C 340.957 162.503,341.245 161.142,341.400 159.602 C 341.555 158.061,341.843 156.800,342.041 156.800 C 342.238 156.800,342.400 156.080,342.400 155.200 C 342.400 154.320,342.580 153.600,342.800 153.600 C 343.020 153.600,343.200 152.711,343.200 151.624 C 343.200 150.537,343.380 149.536,343.600 149.400 C 343.820 149.264,344.000 148.173,344.000 146.976 C 344.000 145.779,344.180 144.800,344.400 144.800 C 344.620 144.800,344.800 143.821,344.800 142.624 C 344.800 141.427,344.980 140.336,345.200 140.200 C 345.420 140.064,345.600 138.534,345.600 136.800 C 345.600 135.066,345.780 133.536,346.000 133.400 C 346.220 133.264,346.400 131.543,346.400 129.576 C 346.400 127.459,346.563 126.000,346.800 126.000 C 347.348 126.000,347.348 100.939,346.800 100.600 C 346.580 100.464,346.400 99.283,346.400 97.976 C 346.400 96.659,346.222 95.600,346.000 95.600 C 345.780 95.600,345.600 94.790,345.600 93.800 C 345.600 92.810,345.420 92.000,345.200 92.000 C 344.980 92.000,344.800 91.280,344.800 90.400 C 344.800 89.520,344.620 88.800,344.400 88.800 C 344.180 88.800,344.000 88.080,344.000 87.200 C 344.000 86.320,343.820 85.600,343.600 85.600 C 343.380 85.600,343.200 85.060,343.200 84.400 C 343.200 83.740,343.020 83.200,342.800 83.200 C 342.580 83.200,342.400 82.660,342.400 82.000 C 342.400 81.340,342.240 80.800,342.045 80.800 C 341.849 80.800,341.568 80.125,341.420 79.300 C 341.095 77.494,340.319 75.600,339.902 75.600 C 339.736 75.600,339.600 75.240,339.600 74.800 C 339.600 74.360,339.420 74.000,339.200 74.000 C 338.980 74.000,338.800 73.640,338.800 73.200 C 338.800 72.760,338.620 72.400,338.400 72.400 C 338.180 72.400,338.000 72.040,338.000 71.600 C 338.000 71.160,337.820 70.800,337.600 70.800 C 337.380 70.800,337.200 70.440,337.200 70.000 C 337.200 69.560,337.020 69.200,336.800 69.200 C 336.580 69.200,336.400 68.880,336.400 68.488 C 336.400 68.097,336.040 67.517,335.600 67.200 C 335.160 66.883,334.800 66.303,334.800 65.912 C 334.800 65.520,334.620 65.200,334.400 65.200 C 334.180 65.200,334.000 64.964,334.000 64.675 C 334.000 64.387,333.640 63.764,333.200 63.292 C 332.760 62.820,332.400 62.246,332.400 62.017 C 332.400 61.788,332.220 61.600,332.000 61.600 C 331.780 61.600,331.600 61.370,331.600 61.088 C 331.600 60.807,331.240 60.317,330.800 60.000 C 330.360 59.683,330.000 59.271,330.000 59.086 C 330.000 58.900,329.100 57.871,328.000 56.800 C 326.900 55.729,326.000 54.705,326.000 54.526 C 325.999 54.347,325.594 53.729,325.100 53.152 C 324.605 52.576,323.750 51.576,323.200 50.929 C 322.650 50.283,321.399 49.134,320.420 48.377 C 319.441 47.620,317.861 46.235,316.909 45.300 C 315.958 44.365,315.031 43.600,314.851 43.600 C 314.562 43.600,313.954 43.157,312.117 41.607 C 311.851 41.383,311.396 41.200,311.105 41.200 C 310.814 41.200,310.317 40.840,310.000 40.400 C 309.683 39.960,309.193 39.600,308.912 39.600 C 308.630 39.600,308.400 39.420,308.400 39.200 C 308.400 38.980,308.122 38.800,307.783 38.800 C 307.444 38.800,306.780 38.440,306.308 38.000 C 305.836 37.560,305.213 37.200,304.925 37.200 C 304.636 37.200,304.400 37.020,304.400 36.800 C 304.400 36.580,304.040 36.400,303.600 36.400 C 303.160 36.400,302.800 36.220,302.800 36.000 C 302.800 35.780,302.440 35.600,302.000 35.600 C 301.560 35.600,301.200 35.420,301.200 35.200 C 301.200 34.980,300.840 34.800,300.400 34.800 C 299.960 34.800,299.600 34.620,299.600 34.400 C 299.600 34.180,299.240 34.000,298.800 34.000 C 298.360 34.000,298.000 33.820,298.000 33.600 C 298.000 33.380,297.640 33.200,297.200 33.200 C 296.760 33.200,296.400 33.020,296.400 32.800 C 296.400 32.580,296.051 32.400,295.624 32.400 C 295.197 32.400,294.736 32.220,294.600 32.000 C 294.464 31.780,293.913 31.600,293.376 31.600 C 292.839 31.600,292.400 31.420,292.400 31.200 C 292.400 30.980,291.961 30.800,291.424 30.800 C 290.887 30.800,290.336 30.620,290.200 30.400 C 290.064 30.180,289.513 30.000,288.976 30.000 C 288.439 30.000,288.000 29.820,288.000 29.600 C 288.000 29.380,287.381 29.200,286.624 29.200 C 285.867 29.200,285.148 29.040,285.027 28.844 C 284.818 28.505,283.857 28.278,280.500 27.775 C 279.675 27.652,278.640 27.390,278.200 27.193 C 276.074 26.244,254.917 25.902,250.000 26.738 C 248.570 26.982,246.590 27.293,245.600 27.431 C 244.610 27.569,243.629 27.844,243.420 28.041 C 243.211 28.238,242.446 28.400,241.720 28.400 C 240.994 28.400,240.400 28.580,240.400 28.800 C 240.400 29.020,239.680 29.200,238.800 29.200 C 237.920 29.200,237.200 29.380,237.200 29.600 C 237.200 29.820,236.660 30.000,236.000 30.000 C 235.340 30.000,234.800 30.180,234.800 30.400 C 234.800 30.620,234.361 30.800,233.824 30.800 C 233.287 30.800,232.736 30.980,232.600 31.200 C 232.464 31.420,232.003 31.600,231.576 31.600 C 231.149 31.600,230.800 31.780,230.800 32.000 C 230.800 32.220,230.260 32.400,229.600 32.400 C 228.940 32.400,228.400 32.580,228.400 32.800 C 228.400 33.020,227.950 33.200,227.400 33.200 C 226.850 33.200,226.400 33.380,226.400 33.600 C 226.400 33.820,225.961 34.000,225.424 34.000 C 224.887 34.000,224.336 34.180,224.200 34.400 C 224.064 34.620,223.603 34.800,223.176 34.800 C 222.749 34.800,222.400 34.980,222.400 35.200 C 222.400 35.420,221.680 35.600,220.800 35.600 C 219.920 35.600,219.200 35.780,219.200 36.000 C 219.200 36.220,218.480 36.400,217.600 36.400 C 216.720 36.400,216.000 36.580,216.000 36.800 C 216.000 37.020,215.201 37.200,214.224 37.200 C 213.247 37.200,212.336 37.380,212.200 37.600 C 212.064 37.820,210.973 38.000,209.776 38.000 C 208.579 38.000,207.600 38.180,207.600 38.400 C 207.600 38.653,204.800 38.800,200.000 38.800 C 195.200 38.800,192.400 38.653,192.400 38.400 C 192.400 38.180,191.421 38.000,190.224 38.000 C 189.027 38.000,187.936 37.820,187.800 37.600 C 187.664 37.380,186.753 37.200,185.776 37.200 C 184.799 37.200,184.000 37.020,184.000 36.800 C 184.000 36.580,183.280 36.400,182.400 36.400 C 181.520 36.400,180.800 36.220,180.800 36.000 C 180.800 35.780,180.080 35.600,179.200 35.600 C 178.320 35.600,177.600 35.420,177.600 35.200 C 177.600 34.980,177.251 34.800,176.824 34.800 C 176.397 34.800,175.936 34.620,175.800 34.400 C 175.664 34.180,175.113 34.000,174.576 34.000 C 174.039 34.000,173.600 33.820,173.600 33.600 C 173.600 33.380,173.150 33.200,172.600 33.200 C 172.050 33.200,171.600 33.020,171.600 32.800 C 171.600 32.580,171.060 32.400,170.400 32.400 C 169.740 32.400,169.200 32.220,169.200 32.000 C 169.200 31.780,168.851 31.600,168.424 31.600 C 167.997 31.600,167.536 31.420,167.400 31.200 C 167.264 30.980,166.713 30.800,166.176 30.800 C 165.639 30.800,165.200 30.620,165.200 30.400 C 165.200 30.180,164.660 30.000,164.000 30.000 C 163.340 30.000,162.800 29.840,162.800 29.644 C 162.800 29.448,162.215 29.191,161.500 29.072 C 159.321 28.712,157.839 28.357,157.000 27.995 C 156.560 27.805,155.480 27.540,154.600 27.407 C 153.720 27.274,151.740 26.973,150.200 26.740 C 147.023 26.258,127.899 25.834,127.496 26.237 M69.200 95.380 L 77.400 103.611 68.691 112.296 L 59.982 120.980 51.293 112.291 L 42.605 103.602 51.174 95.026 C 57.852 88.342,59.883 86.526,60.372 86.799 C 60.717 86.992,64.690 90.853,69.200 95.380 M67.600 152.856 C 67.034 153.085,65.533 153.149,64.141 153.003 C 62.556 152.837,61.587 152.897,61.417 153.173 C 61.272 153.408,60.569 153.600,59.856 153.600 C 59.143 153.600,58.344 153.816,58.080 154.080 C 57.542 154.618,57.419 156.800,57.926 156.800 C 58.106 156.800,58.470 158.105,58.736 159.700 C 59.587 164.805,59.681 165.200,60.044 165.200 C 60.240 165.200,60.400 165.819,60.400 166.576 C 60.400 167.333,60.580 168.064,60.800 168.200 C 61.020 168.336,61.200 169.056,61.200 169.800 C 61.200 170.544,61.380 171.264,61.600 171.400 C 61.820 171.536,62.000 172.087,62.000 172.624 C 62.000 173.161,62.147 173.600,62.328 173.600 C 62.508 173.600,62.900 174.500,63.200 175.600 C 63.500 176.700,63.892 177.600,64.072 177.600 C 64.253 177.600,64.400 178.140,64.400 178.800 C 64.400 179.460,64.580 180.000,64.800 180.000 C 65.020 180.000,65.200 180.540,65.200 181.200 C 65.200 181.860,65.380 182.400,65.600 182.400 C 65.820 182.400,66.000 182.839,66.000 183.376 C 66.000 183.913,66.180 184.464,66.400 184.600 C 66.620 184.736,66.800 185.197,66.800 185.624 C 66.800 186.051,66.980 186.400,67.200 186.400 C 67.420 186.400,67.600 186.940,67.600 187.600 C 67.600 188.260,67.746 188.800,67.925 188.800 C 68.104 188.800,68.498 189.430,68.800 190.200 C 69.102 190.970,69.496 191.600,69.675 191.600 C 69.854 191.600,70.000 191.960,70.000 192.400 C 70.000 192.840,70.180 193.200,70.400 193.200 C 70.620 193.200,70.800 193.740,70.800 194.400 C 70.800 195.060,70.980 195.600,71.200 195.600 C 71.420 195.600,71.600 195.960,71.600 196.400 C 71.600 196.840,71.780 197.200,72.000 197.200 C 72.220 197.200,72.400 197.560,72.400 198.000 C 72.400 198.440,72.580 198.800,72.800 198.800 C 73.020 198.800,73.200 199.160,73.200 199.600 C 73.200 200.040,73.380 200.400,73.600 200.400 C 73.820 200.400,74.000 200.760,74.000 201.200 C 74.000 201.640,74.180 202.000,74.400 202.000 C 74.620 202.000,74.800 202.289,74.800 202.642 C 74.800 203.492,77.601 208.800,78.050 208.800 C 78.242 208.800,78.400 209.160,78.400 209.600 C 78.400 210.040,78.580 210.400,78.800 210.400 C 79.020 210.400,79.200 210.760,79.200 211.200 C 79.200 211.640,79.380 212.000,79.600 212.000 C 79.820 212.000,80.000 212.236,80.000 212.525 C 80.000 212.813,80.360 213.436,80.800 213.908 C 81.240 214.380,81.600 215.044,81.600 215.383 C 81.600 215.722,81.780 216.000,82.000 216.000 C 82.220 216.000,82.400 216.360,82.400 216.800 C 82.400 217.240,82.580 217.600,82.800 217.600 C 83.020 217.600,83.200 217.836,83.200 218.125 C 83.200 218.413,83.560 219.036,84.000 219.508 C 84.440 219.980,84.800 220.604,84.800 220.895 C 84.800 221.186,85.160 221.683,85.600 222.000 C 86.226 222.451,86.400 223.035,86.400 224.688 C 86.400 225.850,86.580 226.800,86.800 226.800 C 87.029 226.800,87.200 228.000,87.200 229.600 C 87.200 231.200,87.371 232.400,87.600 232.400 C 87.831 232.400,88.000 233.667,88.000 235.400 C 88.000 237.133,88.169 238.400,88.400 238.400 C 88.629 238.400,88.800 239.600,88.800 241.200 C 88.800 242.800,88.971 244.000,89.200 244.000 C 89.429 244.000,89.600 245.200,89.600 246.800 C 89.600 248.400,89.771 249.600,90.000 249.600 C 90.231 249.600,90.400 250.867,90.400 252.600 C 90.400 254.333,90.569 255.600,90.800 255.600 C 91.021 255.600,91.200 256.642,91.200 257.927 C 91.200 259.206,91.380 261.231,91.601 262.427 C 92.009 264.640,92.677 270.508,93.055 275.200 C 93.170 276.630,93.430 277.971,93.632 278.180 C 93.835 278.389,94.000 279.683,94.000 281.056 C 94.000 282.429,94.180 283.664,94.400 283.800 C 94.620 283.936,94.800 285.286,94.800 286.800 C 94.800 288.314,94.980 289.664,95.200 289.800 C 95.420 289.936,95.600 291.297,95.600 292.824 C 95.600 294.408,95.772 295.600,96.000 295.600 C 96.229 295.600,96.400 296.800,96.400 298.400 C 96.400 300.000,96.571 301.200,96.800 301.200 C 97.028 301.200,97.200 302.392,97.200 303.976 C 97.200 305.503,97.380 306.864,97.600 307.000 C 97.820 307.136,98.000 308.497,98.000 310.024 C 98.000 311.608,98.172 312.800,98.400 312.800 C 98.629 312.800,98.800 314.000,98.800 315.600 C 98.800 317.200,98.971 318.400,99.200 318.400 C 99.431 318.400,99.600 319.667,99.600 321.400 C 99.600 323.133,99.769 324.400,100.000 324.400 C 100.229 324.400,100.400 325.600,100.400 327.200 C 100.400 328.800,100.571 330.000,100.800 330.000 C 101.029 330.000,101.200 331.200,101.200 332.800 C 101.200 334.400,101.371 335.600,101.600 335.600 C 101.831 335.600,102.000 336.867,102.000 338.600 C 102.000 340.333,102.169 341.600,102.400 341.600 C 102.629 341.600,102.800 342.800,102.800 344.400 C 102.800 346.000,102.971 347.200,103.200 347.200 C 103.420 347.200,103.600 347.999,103.600 348.976 C 103.600 349.953,103.780 350.864,104.000 351.000 C 104.220 351.136,104.400 351.856,104.400 352.600 C 104.400 353.344,104.580 354.064,104.800 354.200 C 105.020 354.336,105.200 354.797,105.200 355.224 C 105.200 355.651,105.346 356.000,105.525 356.000 C 105.704 356.000,106.098 356.630,106.400 357.400 C 106.702 358.170,107.096 358.800,107.275 358.800 C 107.454 358.800,107.600 359.078,107.600 359.417 C 107.600 359.756,107.783 360.251,108.007 360.517 C 109.566 362.365,110.000 362.964,110.000 363.268 C 110.000 363.745,113.556 367.120,114.900 367.919 C 115.505 368.278,116.000 368.714,116.000 368.886 C 116.000 369.059,116.278 369.200,116.617 369.200 C 116.956 369.200,117.620 369.560,118.092 370.000 C 118.564 370.440,119.187 370.800,119.475 370.800 C 119.764 370.800,120.000 370.980,120.000 371.200 C 120.000 371.420,120.540 371.600,121.200 371.600 C 121.860 371.600,122.400 371.736,122.400 371.903 C 122.400 372.296,125.304 373.200,126.570 373.200 C 127.111 373.200,127.664 373.380,127.800 373.600 C 128.130 374.134,139.470 374.134,139.800 373.600 C 139.936 373.380,140.757 373.200,141.624 373.200 C 142.491 373.200,143.200 373.053,143.200 372.872 C 143.200 372.692,144.100 372.300,145.200 372.000 C 146.300 371.700,147.200 371.308,147.200 371.128 C 147.200 370.947,147.560 370.800,148.000 370.800 C 148.440 370.800,148.800 370.620,148.800 370.400 C 148.800 370.180,149.036 370.000,149.325 370.000 C 149.613 370.000,150.236 369.640,150.708 369.200 C 151.180 368.760,151.754 368.400,151.983 368.400 C 152.212 368.400,152.400 368.220,152.400 368.000 C 152.400 367.780,152.598 367.600,152.839 367.600 C 153.509 367.600,157.872 362.875,158.417 361.560 C 158.681 360.922,159.055 360.400,159.249 360.400 C 159.442 360.400,159.600 360.080,159.600 359.688 C 159.600 359.297,159.960 358.717,160.400 358.400 C 160.840 358.083,161.200 357.413,161.200 356.912 C 161.200 356.410,161.380 356.000,161.600 356.000 C 161.820 356.000,162.000 355.640,162.000 355.200 C 162.000 354.760,162.180 354.400,162.400 354.400 C 162.620 354.400,162.800 353.871,162.800 353.224 C 162.800 352.577,162.980 351.936,163.200 351.800 C 163.420 351.664,163.600 350.753,163.600 349.776 C 163.600 348.799,163.780 348.000,164.000 348.000 C 164.222 348.000,164.400 346.933,164.400 345.600 C 164.400 344.267,164.578 343.200,164.800 343.200 C 165.020 343.200,165.200 342.210,165.200 341.000 C 165.200 339.790,165.380 338.800,165.600 338.800 C 165.822 338.800,166.000 337.733,166.000 336.400 C 166.000 335.067,166.178 334.000,166.400 334.000 C 166.622 334.000,166.800 332.933,166.800 331.600 C 166.800 330.267,166.978 329.200,167.200 329.200 C 167.420 329.200,167.600 328.221,167.600 327.024 C 167.600 325.827,167.780 324.736,168.000 324.600 C 168.220 324.464,168.400 323.373,168.400 322.176 C 168.400 320.979,168.580 320.000,168.800 320.000 C 169.022 320.000,169.200 318.933,169.200 317.600 C 169.200 316.267,169.378 315.200,169.600 315.200 C 169.822 315.200,170.000 314.133,170.000 312.800 C 170.000 311.467,170.178 310.400,170.400 310.400 C 170.620 310.400,170.800 309.421,170.800 308.224 C 170.800 307.027,170.980 305.936,171.200 305.800 C 171.420 305.664,171.600 304.584,171.600 303.400 C 171.600 302.216,171.780 301.136,172.000 301.000 C 172.220 300.864,172.400 299.784,172.400 298.600 C 172.400 297.416,172.580 296.336,172.800 296.200 C 173.020 296.064,173.200 295.009,173.200 293.856 C 173.200 292.703,173.363 291.589,173.563 291.380 C 173.945 290.980,174.098 289.919,174.868 282.300 C 175.129 279.715,175.491 277.600,175.671 277.600 C 175.852 277.600,176.000 276.610,176.000 275.400 C 176.000 274.190,176.180 273.200,176.400 273.200 C 176.622 273.200,176.800 272.133,176.800 270.800 C 176.800 269.467,176.978 268.400,177.200 268.400 C 177.422 268.400,177.600 267.333,177.600 266.000 C 177.600 264.667,177.778 263.600,178.000 263.600 C 178.222 263.600,178.400 262.533,178.400 261.200 C 178.400 259.867,178.578 258.800,178.800 258.800 C 179.020 258.800,179.200 257.810,179.200 256.600 C 179.200 255.390,179.380 254.400,179.600 254.400 C 179.822 254.400,180.000 253.333,180.000 252.000 C 180.000 250.667,180.178 249.600,180.400 249.600 C 180.622 249.600,180.800 248.533,180.800 247.200 C 180.800 245.867,180.978 244.800,181.200 244.800 C 181.420 244.800,181.600 243.821,181.600 242.624 C 181.600 241.427,181.780 240.336,182.000 240.200 C 182.220 240.064,182.400 238.973,182.400 237.776 C 182.400 236.579,182.580 235.600,182.800 235.600 C 183.022 235.600,183.200 234.533,183.200 233.200 C 183.200 231.867,183.378 230.800,183.600 230.800 C 183.820 230.800,184.000 229.900,184.000 228.800 C 184.000 227.700,184.180 226.800,184.400 226.800 C 184.620 226.800,184.800 226.260,184.800 225.600 C 184.800 224.940,184.980 224.400,185.200 224.400 C 185.420 224.400,185.600 224.040,185.600 223.600 C 185.600 223.160,185.780 222.800,186.000 222.800 C 186.220 222.800,186.400 222.622,186.400 222.405 C 186.400 221.363,191.762 216.000,192.803 216.000 C 193.216 216.000,193.664 215.820,193.800 215.600 C 193.936 215.380,194.397 215.200,194.824 215.200 C 195.251 215.200,195.600 215.020,195.600 214.800 C 195.600 214.558,197.333 214.400,200.000 214.400 C 202.667 214.400,204.400 214.558,204.400 214.800 C 204.400 215.020,204.839 215.200,205.376 215.200 C 205.913 215.200,206.464 215.380,206.600 215.600 C 206.736 215.820,207.102 216.000,207.414 216.000 C 208.320 216.000,213.600 221.467,213.600 222.405 C 213.600 222.622,213.780 222.800,214.000 222.800 C 214.220 222.800,214.400 223.160,214.400 223.600 C 214.400 224.040,214.580 224.400,214.800 224.400 C 215.020 224.400,215.200 224.940,215.200 225.600 C 215.200 226.260,215.380 226.800,215.600 226.800 C 215.820 226.800,216.000 227.700,216.000 228.800 C 216.000 229.900,216.180 230.800,216.400 230.800 C 216.622 230.800,216.800 231.867,216.800 233.200 C 216.800 234.533,216.978 235.600,217.200 235.600 C 217.420 235.600,217.600 236.590,217.600 237.800 C 217.600 239.010,217.780 240.000,218.000 240.000 C 218.222 240.000,218.400 241.067,218.400 242.400 C 218.400 243.733,218.578 244.800,218.800 244.800 C 219.022 244.800,219.200 245.867,219.200 247.200 C 219.200 248.533,219.378 249.600,219.600 249.600 C 219.822 249.600,220.000 250.667,220.000 252.000 C 220.000 253.333,220.178 254.400,220.400 254.400 C 220.620 254.400,220.800 255.390,220.800 256.600 C 220.800 257.810,220.980 258.800,221.200 258.800 C 221.422 258.800,221.600 259.867,221.600 261.200 C 221.600 262.533,221.778 263.600,222.000 263.600 C 222.222 263.600,222.400 264.667,222.400 266.000 C 222.400 267.333,222.578 268.400,222.800 268.400 C 223.020 268.400,223.200 269.379,223.200 270.576 C 223.200 271.773,223.380 272.864,223.600 273.000 C 223.820 273.136,224.000 274.227,224.000 275.424 C 224.000 276.621,224.180 277.600,224.400 277.600 C 224.620 277.600,224.804 278.455,224.808 279.500 C 224.816 281.287,225.076 283.281,226.047 289.000 C 226.271 290.320,226.548 292.390,226.662 293.600 C 226.777 294.810,227.035 295.971,227.235 296.180 C 227.436 296.389,227.600 297.503,227.600 298.656 C 227.600 299.809,227.780 300.864,228.000 301.000 C 228.220 301.136,228.400 302.191,228.400 303.344 C 228.400 304.497,228.565 305.611,228.766 305.820 C 228.968 306.029,229.193 306.650,229.266 307.200 C 229.413 308.298,233.608 308.952,234.538 308.022 C 234.770 307.790,235.265 307.600,235.637 307.600 C 236.010 307.600,236.408 307.357,236.521 307.061 C 236.644 306.742,237.968 306.321,239.764 306.032 C 243.201 305.477,243.245 305.398,242.398 301.331 C 242.177 300.269,241.005 293.280,239.794 285.800 C 238.583 278.320,237.495 271.660,237.377 271.000 C 237.110 269.518,235.395 259.201,234.783 255.400 C 234.535 253.860,234.178 251.790,233.990 250.800 C 233.803 249.810,233.452 247.740,233.212 246.200 C 232.971 244.660,232.607 242.500,232.402 241.400 C 232.198 240.300,231.915 238.680,231.774 237.800 C 231.633 236.920,231.371 235.300,231.191 234.200 C 231.011 233.100,230.673 231.030,230.440 229.600 C 230.207 228.170,229.851 226.280,229.649 225.400 C 229.447 224.520,229.151 223.170,228.991 222.400 C 227.741 216.398,221.555 208.128,215.859 204.843 C 212.421 202.861,211.729 202.546,209.000 201.718 C 200.388 199.107,192.192 200.103,184.260 204.722 C 180.200 207.087,174.043 213.937,172.864 217.400 C 172.790 217.620,172.463 218.392,172.138 219.115 C 171.214 221.176,170.435 224.590,169.200 232.000 C 168.980 233.320,168.620 235.480,168.400 236.800 C 168.180 238.120,167.827 240.235,167.616 241.500 C 167.404 242.765,167.031 245.060,166.786 246.600 C 166.362 249.273,166.182 250.321,165.208 255.800 C 164.694 258.694,159.323 291.124,158.749 294.800 C 158.317 297.565,157.778 300.810,157.153 304.400 C 156.942 305.610,156.596 307.680,156.384 309.000 C 156.172 310.320,155.826 312.390,155.615 313.600 C 155.404 314.810,155.045 316.925,154.816 318.300 C 154.587 319.675,154.226 321.835,154.014 323.100 C 153.802 324.365,153.442 326.525,153.214 327.900 C 152.986 329.275,152.626 331.435,152.414 332.700 C 151.514 338.064,151.207 339.942,150.824 342.400 C 150.602 343.830,150.147 346.040,149.812 347.312 C 145.461 363.852,123.171 364.468,117.677 348.200 C 117.300 347.082,117.003 345.257,115.955 337.600 C 115.729 335.950,115.383 333.430,115.186 332.000 C 114.989 330.570,114.635 327.960,114.399 326.200 C 114.164 324.440,113.804 321.830,113.600 320.400 C 113.396 318.970,113.050 316.450,112.831 314.800 C 112.103 309.302,111.575 305.425,111.196 302.800 C 110.989 301.370,110.627 298.670,110.391 296.800 C 110.155 294.930,109.801 292.320,109.605 291.000 C 108.980 286.799,108.317 281.925,105.799 263.000 C 105.243 258.820,104.621 254.230,104.417 252.800 C 104.212 251.370,103.846 248.670,103.603 246.800 C 103.360 244.930,102.999 242.320,102.800 241.000 C 102.601 239.680,102.245 237.070,102.009 235.200 C 101.443 230.711,100.865 226.709,100.388 223.976 C 100.175 222.753,100.000 221.175,100.000 220.470 C 100.000 219.766,99.843 218.877,99.650 218.495 C 97.968 215.154,97.324 213.986,96.397 212.600 C 95.808 211.720,94.780 210.010,94.112 208.800 C 93.444 207.590,91.764 204.620,90.379 202.200 C 87.269 196.763,83.603 189.149,79.979 180.600 C 79.793 180.160,79.373 178.990,79.047 178.000 C 78.720 177.010,77.889 174.670,77.200 172.800 C 75.341 167.755,75.020 166.720,73.412 160.600 C 71.135 151.936,71.335 152.396,69.869 152.425 C 69.171 152.439,68.150 152.633,67.600 152.856 M389.844 193.256 C 388.988 193.707,385.251 197.164,381.539 200.938 C 377.827 204.712,374.606 207.980,374.381 208.200 C 373.974 208.598,358.796 223.772,358.143 224.434 C 357.954 224.625,354.290 228.289,350.000 232.577 C 340.550 242.021,342.021 240.550,332.577 250.000 C 328.289 254.290,324.651 257.929,324.491 258.086 C 323.649 258.916,308.329 274.246,308.086 274.502 C 307.929 274.668,305.805 276.742,303.366 279.111 C 300.745 281.657,298.821 283.860,298.661 284.500 C 298.512 285.095,297.411 286.678,296.215 288.018 C 293.070 291.543,292.826 295.690,295.614 298.213 C 296.046 298.604,296.400 299.364,296.400 299.902 C 296.400 300.472,296.900 301.346,297.600 302.000 C 299.152 303.449,299.117 303.758,297.200 305.600 C 296.320 306.446,295.600 307.453,295.600 307.839 C 295.600 308.225,290.867 313.293,285.083 319.100 L 274.566 329.659 270.183 327.461 C 267.772 326.251,264.990 324.988,264.000 324.653 C 263.010 324.318,261.123 323.658,259.807 323.186 C 258.492 322.714,256.512 322.166,255.407 321.968 C 254.303 321.771,251.960 321.341,250.200 321.012 C 248.440 320.684,245.279 320.412,243.176 320.408 C 240.444 320.402,239.131 320.232,238.576 319.813 C 237.692 319.144,233.200 318.966,233.200 319.600 C 233.200 319.828,232.008 320.000,230.424 320.000 C 228.897 320.000,227.536 320.180,227.400 320.400 C 227.264 320.620,226.263 320.800,225.176 320.800 C 224.089 320.800,223.200 320.980,223.200 321.200 C 223.200 321.420,222.660 321.600,222.000 321.600 C 221.340 321.600,220.800 321.780,220.800 322.000 C 220.800 322.220,220.080 322.400,219.200 322.400 C 218.320 322.400,217.600 322.580,217.600 322.800 C 217.600 323.020,217.251 323.200,216.824 323.200 C 216.397 323.200,215.936 323.380,215.800 323.600 C 215.664 323.820,215.113 324.000,214.576 324.000 C 214.039 324.000,213.600 324.180,213.600 324.400 C 213.600 324.620,213.303 324.800,212.940 324.800 C 212.163 324.800,207.861 326.828,207.667 327.285 C 207.593 327.458,207.188 327.600,206.767 327.600 C 206.345 327.600,206.000 327.758,206.000 327.951 C 206.000 328.145,205.460 328.527,204.800 328.800 C 204.140 329.073,203.600 329.425,203.600 329.581 C 203.600 329.737,203.111 330.120,202.514 330.432 C 201.917 330.745,200.792 331.572,200.014 332.271 C 199.236 332.970,197.745 334.298,196.700 335.222 C 195.655 336.146,194.800 337.059,194.800 337.250 C 194.800 337.441,194.170 338.266,193.400 339.082 C 192.630 339.899,192.000 340.765,192.000 341.008 C 192.000 341.251,191.675 341.798,191.278 342.225 C 190.880 342.651,190.297 343.585,189.980 344.300 C 189.664 345.015,189.269 345.600,189.102 345.600 C 188.936 345.600,188.800 345.949,188.800 346.376 C 188.800 346.803,188.620 347.264,188.400 347.400 C 188.180 347.536,188.000 348.087,188.000 348.624 C 188.000 349.161,187.820 349.600,187.600 349.600 C 187.380 349.600,187.200 350.320,187.200 351.200 C 187.200 352.080,187.020 352.800,186.800 352.800 C 186.567 352.800,186.400 354.133,186.400 356.000 C 186.400 357.867,186.233 359.200,186.000 359.200 C 185.780 359.200,185.600 359.650,185.600 360.200 C 185.600 360.750,185.780 361.200,186.000 361.200 C 186.233 361.200,186.400 362.533,186.400 364.400 C 186.400 366.267,186.567 367.600,186.800 367.600 C 187.020 367.600,187.200 368.140,187.200 368.800 C 187.200 369.460,187.380 370.000,187.600 370.000 C 187.820 370.000,188.000 370.540,188.000 371.200 C 188.000 371.860,188.180 372.400,188.400 372.400 C 188.620 372.400,188.800 372.760,188.800 373.200 C 188.800 373.640,188.980 374.000,189.200 374.000 C 189.420 374.000,189.600 374.270,189.600 374.600 C 189.600 374.930,189.780 375.200,190.000 375.200 C 190.220 375.200,190.400 375.560,190.400 376.000 C 190.400 376.440,190.580 376.800,190.800 376.800 C 191.020 376.800,191.200 377.160,191.200 377.600 C 191.200 378.040,191.358 378.400,191.551 378.400 C 191.745 378.400,192.132 378.954,192.413 379.631 C 193.026 381.112,200.569 388.800,201.408 388.800 C 201.734 388.800,202.000 388.950,202.000 389.132 C 202.000 389.315,202.495 389.720,203.100 390.032 C 203.705 390.345,204.438 390.825,204.729 391.100 C 205.019 391.375,205.604 391.600,206.029 391.600 C 206.453 391.600,206.800 391.780,206.800 392.000 C 206.800 392.220,207.036 392.400,207.325 392.400 C 207.613 392.400,208.236 392.760,208.708 393.200 C 209.180 393.640,209.844 394.000,210.183 394.000 C 210.522 394.000,210.800 394.180,210.800 394.400 C 210.800 394.620,211.250 394.800,211.800 394.800 C 212.350 394.800,212.800 394.980,212.800 395.200 C 212.800 395.420,213.160 395.600,213.600 395.600 C 214.040 395.600,214.400 395.780,214.400 396.000 C 214.400 396.220,214.940 396.400,215.600 396.400 C 216.260 396.400,216.800 396.580,216.800 396.800 C 216.800 397.020,217.239 397.200,217.776 397.200 C 218.313 397.200,218.864 397.380,219.000 397.600 C 219.136 397.820,219.777 398.000,220.424 398.000 C 221.071 398.000,221.600 398.180,221.600 398.400 C 221.600 398.620,222.305 398.800,223.167 398.800 C 224.064 398.800,224.804 399.013,224.900 399.300 C 225.029 399.688,228.409 399.800,240.000 399.800 C 251.591 399.800,254.971 399.688,255.100 399.300 C 255.192 399.025,255.871 398.800,256.610 398.800 C 257.348 398.800,258.064 398.620,258.200 398.400 C 258.336 398.180,259.067 398.000,259.824 398.000 C 260.581 398.000,261.200 397.820,261.200 397.600 C 261.200 397.380,261.740 397.200,262.400 397.200 C 263.060 397.200,263.600 397.020,263.600 396.800 C 263.600 396.580,263.949 396.400,264.376 396.400 C 264.803 396.400,265.264 396.220,265.400 396.000 C 265.536 395.780,266.087 395.600,266.624 395.600 C 267.161 395.600,267.600 395.420,267.600 395.200 C 267.600 394.980,267.960 394.800,268.400 394.800 C 268.840 394.800,269.200 394.620,269.200 394.400 C 269.200 394.180,269.560 394.000,270.000 394.000 C 270.440 394.000,270.800 393.820,270.800 393.600 C 270.800 393.380,271.160 393.200,271.600 393.200 C 272.040 393.200,272.400 393.020,272.400 392.800 C 272.400 392.580,272.670 392.400,273.000 392.400 C 273.330 392.400,273.600 392.240,273.600 392.043 C 273.600 391.847,274.009 391.584,274.508 391.459 C 275.007 391.334,275.810 390.864,276.291 390.415 C 276.773 389.967,277.332 389.600,277.535 389.600 C 277.738 389.600,278.645 388.880,279.552 388.000 C 280.459 387.120,281.358 386.400,281.550 386.400 C 281.741 386.400,282.654 385.545,283.578 384.500 C 284.502 383.455,285.875 381.922,286.629 381.093 C 287.383 380.265,288.000 379.320,288.000 378.993 C 288.000 378.667,288.150 378.400,288.332 378.400 C 288.515 378.400,288.920 377.905,289.232 377.300 C 289.544 376.695,289.898 376.110,290.020 376.000 C 290.510 375.557,291.600 372.826,291.600 372.040 C 291.600 371.578,291.780 371.200,292.000 371.200 C 292.220 371.200,292.400 370.761,292.400 370.224 C 292.400 369.687,292.580 369.136,292.800 369.000 C 293.020 368.864,293.200 367.953,293.200 366.976 C 293.200 365.999,293.380 365.200,293.600 365.200 C 293.842 365.200,294.000 363.475,294.000 360.824 C 294.000 358.337,293.827 356.340,293.600 356.200 C 293.380 356.064,293.200 355.063,293.200 353.976 C 293.200 352.889,293.020 352.000,292.800 352.000 C 292.580 352.000,292.400 351.280,292.400 350.400 C 292.400 349.520,292.240 348.800,292.045 348.800 C 291.849 348.800,291.569 348.162,291.423 347.382 C 291.237 346.392,290.868 345.854,290.198 345.599 C 289.670 345.398,288.935 344.642,288.564 343.917 C 288.194 343.193,287.195 341.721,286.345 340.648 C 284.339 338.113,284.296 338.276,287.900 334.735 C 290.691 331.992,293.357 329.975,292.625 331.160 C 292.475 331.402,292.543 331.600,292.776 331.600 C 293.009 331.600,293.200 331.317,293.200 330.971 C 293.200 330.239,294.138 329.200,294.800 329.200 C 295.051 329.200,295.527 328.930,295.857 328.600 C 296.224 328.233,296.279 328.000,296.000 328.000 C 295.721 328.000,295.776 327.767,296.143 327.400 C 296.473 327.070,297.071 326.797,297.471 326.794 C 298.088 326.789,298.108 326.728,297.600 326.400 C 297.086 326.068,297.099 326.011,297.691 326.006 C 298.071 326.003,300.996 323.379,304.190 320.176 L 309.997 314.352 312.377 316.776 C 313.685 318.109,314.953 319.200,315.195 319.200 C 315.436 319.200,316.020 319.560,316.492 320.000 C 317.428 320.872,322.800 321.212,322.800 320.400 C 322.800 320.180,323.051 320.000,323.358 320.000 C 323.790 320.000,334.212 310.157,338.950 305.274 C 339.572 304.633,352.485 291.707,355.350 288.856 C 355.818 288.391,359.687 284.520,363.948 280.254 C 373.227 270.964,370.955 273.236,380.301 263.901 C 384.593 259.613,388.449 255.767,388.870 255.353 C 389.290 254.939,391.921 252.260,394.717 249.400 L 399.800 244.200 399.912 220.486 C 400.040 193.455,400.188 194.770,396.857 193.265 C 394.468 192.185,391.881 192.182,389.844 193.256 M386.800 226.901 L 386.800 237.002 353.400 270.400 L 320.001 303.797 314.780 298.577 L 309.560 293.356 347.832 255.078 C 368.881 234.025,386.260 216.800,386.452 216.800 C 386.643 216.800,386.800 221.345,386.800 226.901 M249.000 333.990 C 249.660 334.165,251.280 334.531,252.600 334.804 C 282.240 340.928,289.339 367.746,264.758 380.734 C 240.894 393.344,206.705 384.663,200.565 364.434 C 197.104 353.030,209.200 338.902,225.600 335.195 C 226.370 335.021,227.900 334.665,229.000 334.403 C 233.330 333.374,245.712 333.118,249.000 333.990 " stroke="none" fill="#050505" fill-rule="evenodd"></path><path id="path1" d="M131.800 40.855 C 125.140 41.380,123.018 41.653,122.620 42.035 C 122.411 42.236,121.834 42.400,121.339 42.400 C 120.843 42.400,120.024 42.561,119.519 42.758 C 119.013 42.955,117.790 43.336,116.800 43.604 C 115.810 43.872,114.550 44.275,114.000 44.499 C 113.450 44.723,112.595 45.063,112.100 45.254 C 109.921 46.092,109.190 46.426,105.600 48.221 C 100.100 50.970,93.967 55.273,89.665 59.400 C 84.577 64.280,84.883 64.228,81.608 60.781 C 81.494 60.660,80.844 60.174,80.165 59.700 L 78.930 58.838 77.265 60.534 C 76.349 61.467,75.600 62.422,75.600 62.656 C 75.600 62.890,75.056 63.651,74.391 64.346 C 73.200 65.593,73.186 65.657,73.440 68.706 C 73.720 72.063,73.230 73.508,70.992 75.922 L 69.999 76.993 80.742 87.797 C 96.594 103.737,96.496 103.386,87.615 112.526 C 85.517 114.686,83.748 116.596,83.685 116.773 C 83.621 116.949,90.936 124.483,99.940 133.516 C 122.765 156.413,122.650 156.027,112.326 174.969 C 109.893 179.434,113.519 188.703,118.661 191.161 C 119.727 191.671,120.913 192.248,121.295 192.444 C 123.194 193.418,129.224 192.556,133.000 190.769 C 137.458 188.660,150.683 183.742,151.060 184.053 C 151.313 184.261,151.915 185.459,152.399 186.716 C 152.882 187.972,153.440 189.405,153.639 189.900 C 153.838 190.395,154.162 191.205,154.359 191.700 C 154.557 192.195,155.007 193.257,155.359 194.060 C 156.627 196.951,157.653 196.284,143.600 201.711 C 128.954 207.368,123.419 208.224,117.000 205.826 C 110.205 203.288,105.652 199.912,102.288 194.915 C 95.920 185.457,95.967 175.384,102.436 162.772 C 103.516 160.667,104.400 158.736,104.400 158.481 C 104.400 157.955,73.848 127.200,73.325 127.200 C 73.139 127.200,71.028 129.165,68.634 131.566 C 66.219 133.988,63.584 136.246,62.715 136.638 C 61.184 137.329,60.443 140.780,61.648 141.609 C 61.815 141.724,61.995 142.750,62.047 143.889 C 62.099 145.028,62.289 145.868,62.471 145.756 C 62.652 145.644,62.800 146.643,62.800 147.976 C 62.800 149.325,62.977 150.400,63.200 150.400 C 63.420 150.400,63.600 150.940,63.600 151.600 C 63.600 153.047,64.126 153.111,68.095 152.148 C 71.111 151.416,71.753 151.633,72.132 153.513 C 72.689 156.275,72.884 157.055,73.200 157.800 C 73.387 158.240,73.631 159.050,73.742 159.600 C 73.853 160.150,74.154 161.320,74.409 162.200 C 74.665 163.080,74.968 164.387,75.081 165.104 C 75.195 165.821,75.449 166.506,75.644 166.627 C 75.840 166.748,76.000 167.251,76.000 167.744 C 76.000 168.237,76.149 168.811,76.330 169.020 C 76.512 169.229,76.905 170.210,77.202 171.200 C 77.500 172.190,77.859 173.180,78.000 173.400 C 78.141 173.620,78.501 174.610,78.800 175.600 C 79.099 176.590,79.454 177.580,79.589 177.800 C 79.723 178.020,80.066 178.920,80.350 179.800 C 80.954 181.672,81.091 181.986,84.610 189.600 C 86.084 192.790,87.447 195.760,87.638 196.200 C 87.829 196.640,88.527 197.900,89.189 199.000 C 89.851 200.100,90.700 201.630,91.075 202.400 C 91.451 203.170,91.858 203.890,91.980 204.000 C 92.102 204.110,92.471 204.740,92.800 205.400 C 93.129 206.060,93.489 206.690,93.599 206.800 C 93.710 206.910,94.042 207.430,94.338 207.955 C 94.633 208.480,95.191 209.470,95.577 210.155 C 95.962 210.840,96.946 212.444,97.763 213.719 C 99.884 217.029,100.243 218.312,101.401 226.703 C 101.970 230.826,102.710 236.090,103.047 238.400 C 103.384 240.710,103.831 244.040,104.041 245.800 C 104.405 248.850,104.806 251.840,105.626 257.600 C 105.830 259.030,106.174 261.550,106.392 263.200 C 107.134 268.828,107.539 271.798,108.002 275.000 C 108.256 276.760,108.626 279.460,108.823 281.000 C 109.020 282.540,109.360 285.060,109.579 286.600 C 109.798 288.140,110.173 290.840,110.412 292.600 C 110.651 294.360,111.011 296.970,111.212 298.400 C 111.413 299.830,111.756 302.350,111.974 304.000 C 112.397 307.208,112.880 310.716,114.176 320.000 C 114.314 320.990,114.608 323.150,114.828 324.800 C 115.048 326.450,115.402 329.015,115.614 330.500 C 116.513 336.789,116.789 338.790,117.232 342.200 C 118.260 350.117,119.726 352.966,124.806 356.928 C 125.139 357.187,125.949 357.646,126.606 357.947 C 127.263 358.247,128.134 358.666,128.543 358.877 C 129.559 359.401,137.667 359.400,138.626 358.876 C 139.052 358.643,139.985 358.217,140.700 357.929 C 141.415 357.640,142.000 357.269,142.000 357.102 C 142.000 356.936,142.225 356.796,142.500 356.791 C 143.386 356.774,145.985 354.122,147.371 351.820 C 149.099 348.950,149.736 346.155,152.026 331.400 C 152.382 329.107,153.016 325.279,153.616 321.800 C 153.844 320.480,154.218 318.230,154.447 316.800 C 154.676 315.370,155.029 313.255,155.232 312.100 C 155.999 307.724,156.407 305.318,156.810 302.800 C 157.039 301.370,157.407 299.120,157.628 297.800 C 157.849 296.480,158.122 294.590,158.236 293.600 C 158.349 292.610,158.603 291.440,158.800 291.000 C 158.997 290.560,159.249 289.390,159.361 288.400 C 159.561 286.617,160.023 283.639,160.816 279.000 C 161.673 273.993,161.986 272.122,162.390 269.600 C 162.619 268.170,162.968 266.010,163.166 264.800 C 163.364 263.590,163.727 261.340,163.973 259.800 C 164.218 258.260,164.848 254.480,165.372 251.400 C 165.897 248.320,166.618 243.910,166.976 241.600 C 167.334 239.290,167.785 236.590,167.979 235.600 C 168.173 234.610,168.535 232.450,168.783 230.800 C 169.517 225.924,170.402 221.888,171.195 219.800 C 171.848 218.080,173.415 214.993,173.700 214.867 C 173.865 214.793,174.000 214.523,174.000 214.267 C 174.001 213.355,178.688 208.092,181.275 206.098 C 191.113 198.515,204.770 197.675,215.578 203.987 C 219.252 206.133,225.971 212.786,225.993 214.300 C 225.997 214.575,226.180 214.800,226.400 214.800 C 226.620 214.800,226.800 215.160,226.800 215.600 C 226.800 216.040,226.936 216.400,227.102 216.400 C 227.269 216.400,227.640 216.985,227.929 217.700 C 228.217 218.415,228.621 219.313,228.826 219.695 C 229.032 220.077,229.200 220.831,229.200 221.371 C 229.200 221.911,229.360 222.452,229.556 222.573 C 229.910 222.792,230.013 223.237,230.765 227.800 C 231.391 231.595,232.000 235.216,232.414 237.600 C 232.625 238.810,232.973 240.970,233.189 242.400 C 233.405 243.830,233.756 245.990,233.969 247.200 C 234.765 251.709,235.606 256.777,236.559 262.800 C 237.633 269.592,237.898 271.207,238.434 274.200 C 238.898 276.790,239.573 280.800,240.034 283.700 C 240.235 284.965,240.580 287.080,240.800 288.400 C 241.020 289.720,241.380 291.880,241.600 293.200 C 241.820 294.520,242.180 296.680,242.400 298.000 C 243.736 306.016,243.678 306.400,241.145 306.400 C 240.288 306.400,238.870 306.624,237.994 306.897 L 236.400 307.395 236.400 309.697 C 236.400 310.966,236.580 312.000,236.800 312.000 C 237.022 312.000,237.200 313.067,237.200 314.400 C 237.200 315.733,237.378 316.800,237.600 316.800 C 237.820 316.800,238.000 317.337,238.000 317.992 C 238.000 319.466,238.122 319.500,245.200 319.991 C 248.170 320.197,251.500 320.556,252.600 320.789 C 253.700 321.022,255.369 321.324,256.309 321.459 C 257.249 321.595,258.115 321.862,258.233 322.053 C 258.351 322.244,258.799 322.400,259.229 322.400 C 259.984 322.400,260.374 322.544,262.295 323.538 C 262.787 323.792,263.464 324.000,263.800 324.000 C 264.136 324.000,264.723 324.160,265.105 324.356 C 265.487 324.552,266.700 325.134,267.800 325.649 C 268.900 326.164,270.663 327.083,271.718 327.693 C 272.772 328.302,273.837 328.800,274.083 328.800 C 274.330 328.800,279.272 324.053,285.066 318.250 L 295.600 307.700 295.600 305.850 C 295.600 304.833,295.780 304.000,296.000 304.000 C 296.220 304.000,296.400 303.140,296.400 302.089 C 296.400 300.228,295.932 299.182,294.314 297.425 C 293.921 296.998,293.600 296.244,293.600 295.748 C 293.600 295.253,293.420 294.736,293.200 294.600 C 292.980 294.464,292.800 293.924,292.800 293.400 C 292.800 292.876,292.980 292.336,293.200 292.200 C 293.420 292.064,293.600 291.524,293.600 290.999 C 293.600 290.403,294.401 289.176,295.740 287.723 C 298.330 284.911,298.800 284.070,298.800 282.250 C 298.800 281.478,298.980 280.736,299.200 280.600 C 299.420 280.464,299.600 279.193,299.600 277.776 C 299.600 276.325,299.775 275.200,300.000 275.200 C 300.231 275.200,300.400 273.933,300.400 272.200 C 300.400 270.467,300.569 269.200,300.800 269.200 C 301.029 269.200,301.200 268.000,301.200 266.400 C 301.200 264.800,301.371 263.600,301.600 263.600 C 301.820 263.600,302.000 262.897,302.000 262.037 L 302.000 260.474 299.900 260.255 C 298.745 260.135,297.015 259.917,296.055 259.772 L 294.311 259.507 294.559 257.254 C 294.695 256.014,294.982 253.740,295.196 252.200 C 296.100 245.692,297.167 237.769,297.430 235.600 C 299.377 219.565,299.885 217.354,302.584 213.182 C 303.583 211.638,304.400 210.273,304.400 210.149 C 304.400 210.025,304.739 209.446,305.153 208.862 C 305.567 208.278,306.287 207.125,306.753 206.300 C 307.673 204.671,308.713 202.847,310.062 200.500 C 311.958 197.200,313.200 194.690,313.200 194.159 C 313.200 193.852,313.380 193.600,313.600 193.600 C 313.820 193.600,314.000 193.396,314.000 193.147 C 314.000 192.897,314.600 191.502,315.332 190.047 C 316.065 188.591,317.788 184.520,319.162 181.000 C 320.536 177.480,321.826 174.287,322.030 173.905 C 322.233 173.523,322.400 172.859,322.400 172.429 C 322.400 171.999,322.580 171.536,322.800 171.400 C 323.020 171.264,323.200 170.724,323.200 170.200 C 323.200 169.676,323.380 169.136,323.600 169.000 C 323.820 168.864,324.000 168.324,324.000 167.800 C 324.000 167.276,324.180 166.736,324.400 166.600 C 324.620 166.464,324.800 165.924,324.800 165.400 C 324.800 164.876,324.980 164.336,325.200 164.200 C 325.420 164.064,325.600 163.434,325.600 162.800 C 325.600 162.166,325.780 161.536,326.000 161.400 C 326.220 161.264,326.400 160.544,326.400 159.800 C 326.400 159.056,326.561 158.348,326.758 158.226 C 326.955 158.105,327.218 157.329,327.342 156.503 C 327.872 152.993,328.108 151.980,328.444 151.773 C 328.640 151.652,328.800 151.026,328.800 150.382 C 328.800 149.738,328.973 148.444,329.184 147.506 C 329.395 146.568,329.744 144.810,329.960 143.600 C 330.175 142.390,330.534 140.410,330.757 139.200 C 332.337 130.610,333.321 109.221,332.431 102.841 C 331.780 98.176,331.265 95.310,330.736 93.400 C 329.954 90.576,328.773 87.021,328.381 86.305 C 328.171 85.923,328.000 85.406,328.000 85.157 C 328.000 84.471,324.014 76.436,322.727 74.528 C 322.107 73.608,321.600 72.663,321.600 72.428 C 321.600 72.193,321.420 72.000,321.200 72.000 C 320.980 72.000,320.800 71.823,320.800 71.606 C 320.800 70.345,312.204 60.656,307.758 56.906 C 302.289 52.293,293.297 47.006,287.800 45.171 C 286.920 44.877,286.029 44.493,285.820 44.318 C 285.611 44.143,285.037 44.000,284.544 44.000 C 284.051 44.000,283.536 43.820,283.400 43.600 C 283.264 43.380,282.634 43.200,282.000 43.200 C 281.366 43.200,280.736 43.020,280.600 42.800 C 280.464 42.580,279.769 42.400,279.056 42.400 C 278.343 42.400,277.589 42.237,277.380 42.037 C 275.656 40.390,249.544 40.390,247.820 42.037 C 247.611 42.237,246.857 42.400,246.144 42.400 C 245.431 42.400,244.736 42.580,244.600 42.800 C 244.464 43.020,243.922 43.200,243.395 43.200 C 242.869 43.200,241.934 43.402,241.319 43.650 C 240.703 43.897,239.750 44.281,239.200 44.503 C 237.629 45.138,236.708 45.482,235.200 46.000 C 234.430 46.264,233.440 46.626,233.000 46.803 C 216.198 53.575,196.021 54.914,178.400 50.427 C 174.393 49.407,169.588 47.883,167.000 46.812 C 166.560 46.630,165.570 46.264,164.800 46.000 C 164.030 45.736,162.950 45.333,162.400 45.106 C 161.850 44.879,161.040 44.559,160.600 44.396 C 160.160 44.233,159.297 43.897,158.681 43.650 C 158.066 43.402,157.131 43.200,156.605 43.200 C 156.078 43.200,155.548 43.040,155.427 42.844 C 155.209 42.490,154.199 42.268,150.000 41.649 C 148.790 41.471,147.530 41.222,147.200 41.096 C 146.138 40.689,135.925 40.530,131.800 40.855 M288.697 334.712 C 286.991 336.410,285.596 337.970,285.597 338.178 C 285.600 338.610,287.452 341.414,288.500 342.575 C 288.885 343.002,289.200 343.587,289.200 343.875 C 289.200 344.646,290.136 344.514,290.664 343.670 C 290.915 343.268,291.251 340.568,291.411 337.670 C 291.572 334.771,291.860 332.400,292.051 332.400 C 292.243 332.400,292.400 332.220,292.400 332.000 C 292.400 331.199,291.742 331.681,288.697 334.712 " stroke="none" fill="#dfdfdf" fill-rule="evenodd"></path><path id="path2" d="M13.419 24.408 C 13.295 24.734,13.240 39.658,13.297 57.572 L 13.400 90.145 17.834 93.972 C 25.048 100.199,25.781 100.797,26.202 100.799 C 26.423 100.799,33.519 93.884,41.970 85.430 L 57.336 70.061 53.606 66.130 C 51.554 63.969,42.668 54.550,33.859 45.200 C 12.159 22.167,13.683 23.718,13.419 24.408 M347.832 255.078 L 309.560 293.356 314.780 298.577 L 320.001 303.797 353.400 270.400 L 386.800 237.002 386.800 226.901 C 386.800 221.345,386.643 216.800,386.452 216.800 C 386.260 216.800,368.881 234.025,347.832 255.078 " stroke="none" fill="#439ad2" fill-rule="evenodd"></path><path id="path3" d="M51.743 95.215 C 47.374 99.623,43.755 103.359,43.699 103.517 C 43.570 103.885,59.906 120.225,60.158 119.982 C 62.136 118.069,74.873 105.392,75.583 104.629 L 76.565 103.573 68.386 95.386 C 63.888 90.884,60.090 87.200,59.946 87.200 C 59.803 87.200,56.111 90.807,51.743 95.215 M231.800 334.600 C 225.711 335.716,224.505 335.999,222.000 336.899 C 210.292 341.107,202.481 348.684,200.782 357.482 C 199.590 363.657,203.577 372.207,209.600 376.390 C 210.370 376.925,211.270 377.641,211.600 377.981 C 213.598 380.042,224.346 384.253,229.800 385.112 C 235.463 386.003,240.594 386.361,242.600 386.004 C 243.700 385.808,245.542 385.637,246.694 385.624 C 252.529 385.557,265.377 380.743,269.820 376.957 C 275.066 372.489,277.198 369.585,278.785 364.749 C 279.901 361.350,279.576 354.000,278.309 354.000 C 278.139 354.000,278.000 353.735,278.000 353.412 C 278.000 351.672,273.831 346.217,270.735 343.906 C 269.929 343.304,269.023 342.584,268.722 342.306 C 267.429 341.109,261.573 338.153,257.800 336.793 C 255.378 335.920,254.720 335.772,248.200 334.632 C 243.912 333.883,235.798 333.867,231.800 334.600 " stroke="none" fill="#a4dbeb" fill-rule="evenodd"></path><path id="path4" d="M133.200 40.076 C 129.005 40.352,125.397 40.864,122.000 41.668 C 119.092 42.355,114.672 43.607,113.700 44.019 C 112.068 44.710,110.612 45.303,109.800 45.606 C 103.411 47.994,95.034 53.515,88.718 59.500 C 84.600 63.402,85.249 63.268,82.400 60.800 C 81.130 59.700,79.846 58.806,79.546 58.813 C 79.193 58.821,79.283 59.036,79.800 59.420 C 81.204 60.464,82.167 61.273,83.467 62.498 C 84.990 63.934,84.782 64.041,89.864 59.195 C 95.027 54.271,103.903 48.523,110.300 45.961 C 112.679 45.007,113.454 44.679,114.095 44.353 C 114.477 44.159,115.141 44.000,115.571 44.000 C 116.001 44.000,116.452 43.840,116.573 43.644 C 116.694 43.449,117.379 43.191,118.096 43.073 C 120.296 42.709,121.763 42.356,122.600 41.989 C 125.814 40.581,142.379 40.326,149.800 41.571 C 151.120 41.792,152.877 42.089,153.704 42.231 C 154.531 42.373,155.306 42.649,155.427 42.844 C 155.548 43.040,156.078 43.200,156.605 43.200 C 157.131 43.200,158.066 43.402,158.681 43.650 C 159.297 43.897,160.205 44.257,160.700 44.450 C 161.195 44.642,162.005 44.962,162.500 45.160 C 162.995 45.357,164.030 45.736,164.800 46.000 C 165.570 46.264,166.560 46.630,167.000 46.812 C 186.908 55.053,213.190 55.054,233.000 46.814 C 233.440 46.630,234.430 46.264,235.200 46.000 C 236.708 45.482,237.629 45.138,239.200 44.503 C 239.750 44.281,240.703 43.897,241.319 43.650 C 241.934 43.402,242.869 43.200,243.395 43.200 C 243.922 43.200,244.452 43.040,244.573 42.844 C 244.694 42.649,245.469 42.373,246.296 42.231 C 251.548 41.332,253.092 41.135,257.455 40.811 C 263.459 40.364,276.467 41.165,277.380 42.037 C 277.589 42.237,278.343 42.400,279.056 42.400 C 279.769 42.400,280.464 42.580,280.600 42.800 C 280.736 43.020,281.366 43.200,282.000 43.200 C 282.634 43.200,283.264 43.380,283.400 43.600 C 283.536 43.820,284.051 44.000,284.544 44.000 C 285.037 44.000,285.611 44.143,285.820 44.318 C 286.029 44.493,286.920 44.877,287.800 45.171 C 293.338 47.020,303.257 52.871,308.173 57.190 C 312.578 61.059,320.800 70.446,320.800 71.606 C 320.800 71.823,320.980 72.000,321.200 72.000 C 321.420 72.000,321.600 72.193,321.600 72.428 C 321.600 72.663,322.107 73.608,322.727 74.528 C 324.014 76.436,328.000 84.471,328.000 85.157 C 328.000 85.406,328.159 85.923,328.353 86.305 C 328.975 87.527,329.496 88.952,329.997 90.800 C 330.265 91.790,330.634 92.960,330.815 93.400 C 331.779 95.732,331.056 92.270,329.782 88.451 C 318.539 54.740,283.875 34.387,249.297 41.193 C 243.991 42.238,242.362 42.736,233.600 45.988 C 225.777 48.891,221.030 50.248,215.400 51.190 C 213.860 51.447,211.625 51.825,210.433 52.029 C 209.242 52.233,204.547 52.400,200.000 52.400 C 195.453 52.400,190.758 52.233,189.567 52.029 C 188.375 51.825,186.140 51.447,184.600 51.190 C 179.916 50.407,173.007 48.551,169.800 47.214 C 169.360 47.031,168.370 46.664,167.600 46.400 C 166.830 46.136,165.840 45.774,165.400 45.597 C 154.416 41.170,143.925 39.371,133.200 40.076 M72.993 68.557 C 73.273 71.198,72.688 73.120,71.006 75.085 C 70.233 75.988,69.602 76.879,69.604 77.064 C 69.606 77.249,74.481 82.260,80.437 88.200 C 96.186 103.908,96.003 103.266,87.261 112.102 L 82.608 116.804 98.634 132.902 C 118.316 152.672,118.195 152.516,118.198 158.200 C 118.200 161.372,118.029 161.893,114.709 168.800 C 110.351 177.870,110.037 180.282,112.526 185.578 C 115.273 191.424,123.799 195.044,129.451 192.764 C 130.083 192.509,131.005 192.143,131.500 191.950 C 133.391 191.215,134.260 190.853,136.096 190.040 C 137.138 189.578,138.176 189.200,138.401 189.200 C 138.626 189.200,139.123 189.041,139.505 188.847 C 140.150 188.519,141.013 188.154,143.300 187.241 C 143.795 187.043,144.857 186.593,145.660 186.241 C 146.464 185.888,147.246 185.600,147.400 185.600 C 147.554 185.600,148.302 185.305,149.063 184.943 C 150.824 184.108,150.724 183.979,153.296 190.411 C 155.410 195.697,155.642 196.800,154.642 196.800 C 154.371 196.800,153.405 197.160,152.494 197.600 C 151.584 198.040,150.648 198.400,150.414 198.400 C 150.180 198.400,149.677 198.559,149.295 198.753 C 148.650 199.081,147.787 199.446,145.500 200.359 C 145.005 200.557,143.943 201.007,143.140 201.359 C 142.336 201.712,141.560 202.000,141.414 202.000 C 140.860 202.000,137.184 203.718,137.360 203.894 C 137.515 204.048,149.408 199.534,153.400 197.805 C 154.060 197.519,154.929 197.177,155.332 197.043 C 156.071 196.798,156.010 195.263,155.196 193.613 C 155.029 193.276,154.710 192.550,154.487 192.000 C 154.263 191.450,153.727 190.190,153.295 189.200 C 152.863 188.210,152.287 186.712,152.015 185.872 C 151.742 185.032,151.253 184.242,150.927 184.117 C 150.404 183.916,142.585 186.719,137.600 188.894 C 135.599 189.767,134.294 190.313,132.800 190.900 C 132.250 191.116,131.487 191.452,131.105 191.647 C 130.723 191.841,130.059 192.000,129.629 192.000 C 129.199 192.000,128.736 192.180,128.600 192.400 C 128.301 192.885,122.271 192.937,121.295 192.463 C 120.913 192.278,119.757 191.719,118.726 191.221 C 113.452 188.675,109.960 179.968,112.274 175.136 C 112.521 174.621,113.893 171.770,115.322 168.800 C 121.811 155.320,121.897 155.512,99.356 132.973 C 90.690 124.309,83.602 117.080,83.604 116.910 C 83.607 116.739,85.378 114.778,87.540 112.552 C 92.952 106.979,93.333 106.390,93.333 103.600 C 93.333 100.477,93.257 100.382,80.703 87.758 L 69.921 76.915 70.953 75.884 C 73.327 73.510,74.297 69.789,73.165 67.400 C 72.892 66.825,72.844 67.151,72.993 68.557 M51.174 95.026 L 42.605 103.602 51.293 112.291 L 59.982 120.980 68.691 112.296 L 77.400 103.611 69.200 95.380 C 64.690 90.853,60.717 86.992,60.372 86.799 C 59.883 86.526,57.852 88.342,51.174 95.026 M68.386 95.386 L 76.565 103.573 75.583 104.629 C 74.873 105.392,62.136 118.069,60.158 119.982 C 59.906 120.225,43.570 103.885,43.699 103.517 C 43.858 103.065,59.654 87.200,59.946 87.200 C 60.090 87.200,63.888 90.884,68.386 95.386 M331.379 96.000 C 331.538 96.990,331.850 98.790,332.072 100.000 C 333.433 107.424,332.538 129.572,330.407 141.200 C 329.670 145.217,329.165 148.182,328.940 149.800 C 328.818 150.680,328.556 151.571,328.359 151.780 C 328.162 151.989,328.000 152.743,328.000 153.456 C 328.000 154.169,327.820 154.864,327.600 155.000 C 327.380 155.136,327.200 155.856,327.200 156.600 C 327.200 157.344,327.020 158.064,326.800 158.200 C 326.580 158.336,326.400 159.056,326.400 159.800 C 326.400 160.544,326.220 161.264,326.000 161.400 C 325.780 161.536,325.600 162.166,325.600 162.800 C 325.600 163.434,325.420 164.064,325.200 164.200 C 324.980 164.336,324.800 164.876,324.800 165.400 C 324.800 165.924,324.620 166.464,324.400 166.600 C 324.180 166.736,324.000 167.276,324.000 167.800 C 324.000 168.324,323.820 168.864,323.600 169.000 C 323.380 169.136,323.200 169.676,323.200 170.200 C 323.200 170.724,323.020 171.264,322.800 171.400 C 322.580 171.536,322.400 171.999,322.400 172.429 C 322.400 172.859,322.233 173.523,322.029 173.905 C 321.825 174.287,320.481 177.601,319.042 181.269 C 316.778 187.039,311.086 199.413,310.425 200.000 C 310.301 200.110,309.958 200.630,309.662 201.155 C 309.367 201.680,308.782 202.715,308.362 203.455 C 307.943 204.195,307.257 205.406,306.837 206.147 C 306.075 207.492,304.077 210.778,301.668 214.650 C 299.976 217.371,299.258 220.685,298.000 231.600 C 297.759 233.690,297.391 236.168,297.181 237.106 C 296.971 238.044,296.800 239.592,296.800 240.546 C 296.800 241.500,296.609 242.828,296.376 243.496 C 296.143 244.165,296.008 245.586,296.076 246.656 C 296.163 248.026,296.529 246.178,297.313 240.400 C 297.925 235.890,298.590 231.030,298.790 229.600 C 298.991 228.170,299.359 225.470,299.609 223.600 C 300.314 218.307,301.205 215.954,304.000 212.000 C 304.388 211.450,305.087 210.325,305.553 209.500 C 306.019 208.675,306.788 207.325,307.263 206.500 C 307.737 205.675,308.329 204.640,308.578 204.200 C 308.826 203.760,309.609 202.394,310.317 201.164 C 312.457 197.446,318.800 184.210,318.800 183.461 C 318.800 183.313,319.178 182.338,319.640 181.296 C 320.412 179.552,320.712 178.847,321.636 176.600 C 330.475 155.103,335.607 118.040,332.375 99.051 C 331.968 96.658,331.512 94.588,331.362 94.451 C 331.211 94.313,331.219 95.010,331.379 96.000 M68.400 130.904 C 65.870 133.377,63.260 135.809,62.600 136.309 L 61.400 137.217 62.800 136.556 C 63.570 136.192,66.189 133.938,68.621 131.547 C 71.053 129.156,73.214 127.200,73.423 127.200 C 74.094 127.200,104.400 157.778,104.400 158.455 C 104.400 158.813,103.513 160.886,102.429 163.063 C 98.631 170.692,97.600 174.288,97.600 179.907 C 97.600 190.565,104.780 201.062,114.600 204.760 C 115.920 205.257,117.313 205.830,117.695 206.032 C 118.077 206.234,119.247 206.379,120.295 206.353 L 122.200 206.306 120.191 205.970 C 107.076 203.771,97.127 191.022,98.149 177.725 C 98.470 173.546,99.783 169.515,102.840 163.319 C 104.720 159.509,105.161 158.280,104.851 157.719 C 104.278 156.682,73.851 126.399,73.388 126.404 C 73.175 126.407,70.930 128.432,68.400 130.904 M68.800 152.004 C 68.030 152.180,66.590 152.515,65.600 152.749 L 63.800 153.173 66.000 152.962 C 67.210 152.845,68.855 152.654,69.656 152.537 C 71.352 152.289,71.067 151.676,73.412 160.600 C 75.020 166.720,75.341 167.755,77.200 172.800 C 77.889 174.670,78.720 177.010,79.047 178.000 C 79.373 178.990,79.793 180.160,79.979 180.600 C 83.603 189.149,87.269 196.763,90.379 202.200 C 91.764 204.620,93.444 207.590,94.112 208.800 C 94.780 210.010,95.808 211.720,96.397 212.600 C 97.324 213.986,97.968 215.154,99.650 218.495 C 99.843 218.877,100.000 219.766,100.000 220.470 C 100.000 221.175,100.175 222.753,100.388 223.976 C 100.815 226.427,101.351 230.107,101.994 235.000 C 103.466 246.212,104.056 249.605,103.804 245.400 C 103.712 243.860,103.455 241.340,103.234 239.800 C 103.013 238.260,102.281 233.006,101.607 228.124 C 100.221 218.082,99.941 217.086,97.416 213.182 C 96.417 211.638,95.600 210.278,95.600 210.160 C 95.600 210.041,95.099 209.192,94.488 208.272 C 93.876 207.352,93.111 206.060,92.788 205.400 C 92.465 204.740,92.111 204.110,92.001 204.000 C 91.890 203.890,91.413 203.080,90.940 202.200 C 90.467 201.320,89.674 199.880,89.178 199.000 C 87.690 196.359,86.953 194.853,84.384 189.200 C 80.974 181.699,80.929 181.593,80.350 179.800 C 80.066 178.920,79.723 178.020,79.589 177.800 C 79.454 177.580,79.099 176.590,78.800 175.600 C 78.501 174.610,78.141 173.620,78.000 173.400 C 77.859 173.180,77.499 172.190,77.200 171.200 C 76.901 170.210,76.541 169.220,76.400 169.000 C 76.156 168.618,75.856 167.615,74.787 163.600 C 74.523 162.610,74.169 161.350,74.000 160.800 C 73.667 159.715,72.971 157.137,72.328 154.600 C 71.571 151.613,71.319 151.428,68.800 152.004 M196.579 199.997 C 191.167 200.472,185.987 202.545,181.275 206.123 C 178.659 208.109,174.001 213.344,174.000 214.300 C 174.000 214.575,173.864 214.800,173.698 214.800 C 173.531 214.800,173.144 215.385,172.836 216.100 C 172.529 216.815,171.957 218.120,171.566 219.000 C 170.778 220.775,169.507 226.197,168.800 230.800 C 168.546 232.450,167.994 235.780,167.573 238.200 C 167.152 240.620,166.188 246.470,165.431 251.200 C 164.674 255.930,163.944 260.430,163.809 261.200 C 163.202 264.666,162.775 267.191,162.390 269.600 C 162.161 271.030,161.800 273.235,161.587 274.500 C 161.374 275.765,161.020 277.880,160.800 279.200 C 160.580 280.520,160.220 282.680,160.000 284.000 C 159.780 285.320,159.420 287.480,159.200 288.800 C 158.354 293.878,158.013 295.882,157.600 298.200 C 157.365 299.520,157.014 301.590,156.821 302.800 C 156.316 305.952,155.593 310.279,155.182 312.600 C 154.988 313.700,154.651 315.680,154.434 317.000 C 153.828 320.687,153.207 324.375,152.785 326.800 C 152.574 328.010,152.238 330.080,152.037 331.400 C 149.976 344.931,149.177 348.583,147.667 351.369 C 146.523 353.480,143.377 356.800,142.521 356.800 C 142.234 356.800,142.000 356.936,142.000 357.102 C 142.000 357.269,141.415 357.640,140.700 357.929 C 139.985 358.217,139.052 358.643,138.626 358.876 C 137.667 359.400,129.559 359.401,128.543 358.877 C 128.134 358.666,127.260 358.247,126.600 357.947 C 125.189 357.304,125.077 357.227,123.032 355.514 C 119.223 352.322,118.014 349.146,116.748 339.000 C 116.333 335.676,115.894 332.448,115.184 327.500 C 114.954 325.905,114.583 323.160,114.359 321.400 C 114.135 319.640,113.795 317.120,113.604 315.800 C 113.413 314.480,113.064 312.005,112.828 310.300 C 112.593 308.595,112.206 305.805,111.970 304.100 C 111.733 302.395,111.369 299.740,111.160 298.200 C 110.356 292.260,110.004 289.698,109.609 286.900 C 108.279 277.474,107.600 272.315,107.272 269.132 C 107.120 267.664,106.839 266.314,106.645 266.132 C 106.237 265.746,106.504 268.665,107.603 276.600 C 108.029 279.680,108.572 283.640,108.808 285.400 C 109.044 287.160,109.401 289.680,109.600 291.000 C 109.799 292.320,110.155 294.930,110.391 296.800 C 110.627 298.670,110.989 301.370,111.196 302.800 C 111.402 304.230,111.758 306.795,111.986 308.500 C 112.214 310.205,112.586 312.995,112.814 314.700 C 113.042 316.405,113.396 318.970,113.600 320.400 C 113.804 321.830,114.150 324.350,114.369 326.000 C 114.587 327.650,114.966 330.440,115.211 332.200 C 115.455 333.960,115.817 336.570,116.014 338.000 C 117.064 345.619,117.306 347.102,117.677 348.200 C 123.171 364.468,145.461 363.852,149.812 347.312 C 150.147 346.040,150.602 343.830,150.824 342.400 C 151.047 340.970,151.396 338.810,151.600 337.600 C 151.805 336.390,152.164 334.230,152.400 332.800 C 152.636 331.370,152.996 329.210,153.200 328.000 C 153.628 325.465,154.187 322.117,154.802 318.400 C 155.038 316.970,155.404 314.810,155.615 313.600 C 155.826 312.390,156.171 310.320,156.381 309.000 C 156.592 307.680,156.967 305.430,157.215 304.000 C 157.943 299.790,158.314 297.560,158.747 294.800 C 159.345 290.987,164.709 258.609,165.208 255.800 C 166.182 250.321,166.362 249.273,166.786 246.600 C 167.031 245.060,167.404 242.765,167.616 241.500 C 167.827 240.235,168.180 238.120,168.400 236.800 C 168.620 235.480,168.980 233.320,169.200 232.000 C 170.435 224.590,171.214 221.176,172.138 219.115 C 172.463 218.392,172.790 217.620,172.864 217.400 C 174.043 213.937,180.200 207.087,184.260 204.722 C 192.192 200.103,200.388 199.107,209.000 201.718 C 211.729 202.546,212.421 202.861,215.859 204.843 C 221.555 208.128,227.741 216.398,228.991 222.400 C 229.151 223.170,229.447 224.520,229.649 225.400 C 229.851 226.280,230.207 228.170,230.440 229.600 C 230.673 231.030,231.011 233.100,231.191 234.200 C 231.371 235.300,231.633 236.920,231.774 237.800 C 231.915 238.680,232.198 240.300,232.402 241.400 C 232.607 242.500,232.973 244.660,233.216 246.200 C 233.460 247.740,233.817 249.900,234.012 251.000 C 234.748 255.166,235.223 257.993,236.230 264.200 C 236.801 267.720,237.343 270.675,237.434 270.767 C 237.778 271.113,237.563 268.483,236.994 265.400 C 236.670 263.640,236.144 260.490,235.826 258.400 C 235.508 256.310,234.796 251.900,234.245 248.600 C 233.693 245.300,233.061 241.520,232.841 240.200 C 232.620 238.880,232.237 236.540,231.988 235.000 C 231.740 233.460,231.371 231.549,231.169 230.754 C 230.966 229.958,230.800 228.842,230.800 228.273 C 230.800 227.704,230.508 226.195,230.151 224.920 C 229.794 223.644,229.414 222.013,229.307 221.296 C 229.199 220.579,228.951 219.894,228.756 219.773 C 228.560 219.652,228.400 219.203,228.400 218.776 C 228.400 218.349,228.265 217.999,228.100 217.997 C 227.741 217.993,226.800 216.056,226.800 215.320 C 226.800 215.034,226.620 214.800,226.400 214.800 C 226.180 214.800,225.997 214.575,225.993 214.300 C 225.971 212.805,219.255 206.134,215.654 204.031 C 211.382 201.536,203.247 199.232,200.210 199.657 C 199.985 199.689,198.350 199.842,196.579 199.997 M133.600 204.870 C 132.390 205.295,130.680 205.794,129.800 205.978 L 128.200 206.312 129.705 206.356 C 130.533 206.380,131.523 206.238,131.905 206.039 C 132.287 205.840,133.410 205.449,134.400 205.169 C 136.231 204.652,137.455 203.959,136.380 204.048 C 136.061 204.074,134.810 204.444,133.600 204.870 M122.915 206.840 C 123.394 207.119,124.318 207.131,125.715 206.876 L 127.800 206.495 125.000 206.460 C 122.882 206.433,122.374 206.526,122.915 206.840 M104.000 249.201 C 104.000 250.259,105.432 260.760,105.991 263.800 C 106.469 266.402,106.221 262.285,105.630 257.800 C 105.427 256.260,105.090 253.598,104.882 251.885 C 104.515 248.867,104.000 247.299,104.000 249.201 M295.479 250.000 C 295.219 251.441,294.978 253.335,294.554 257.254 L 294.311 259.507 295.855 259.729 C 296.705 259.851,298.390 260.044,299.600 260.158 L 301.800 260.366 299.800 259.821 C 298.700 259.522,297.103 259.260,296.250 259.238 C 294.770 259.202,294.710 259.149,294.925 258.073 C 295.446 255.469,296.056 249.996,295.900 249.325 C 295.793 248.864,295.640 249.110,295.479 250.000 M237.598 271.833 C 237.596 272.681,241.758 298.261,242.398 301.331 C 243.244 305.394,243.197 305.478,239.789 306.028 C 238.132 306.295,236.665 306.694,236.529 306.915 C 236.370 307.172,236.696 307.209,237.441 307.017 C 238.078 306.853,239.536 306.631,240.681 306.523 C 243.758 306.235,243.766 306.194,242.400 298.000 C 242.180 296.680,241.820 294.520,241.600 293.200 C 240.904 289.026,240.446 286.274,240.034 283.800 C 239.814 282.480,239.447 280.320,239.218 279.000 C 238.989 277.680,238.637 275.461,238.436 274.068 C 238.077 271.586,237.602 270.319,237.598 271.833 M298.120 284.947 C 297.944 285.249,296.855 286.540,295.700 287.817 C 294.467 289.180,293.600 290.513,293.600 291.046 C 293.600 291.545,293.420 292.064,293.200 292.200 C 292.980 292.336,292.800 292.876,292.800 293.400 C 292.800 293.924,292.980 294.464,293.200 294.600 C 293.420 294.736,293.600 295.253,293.600 295.748 C 293.600 296.244,293.921 296.998,294.314 297.425 C 294.707 297.851,295.337 298.645,295.714 299.189 C 296.183 299.865,296.400 299.980,296.400 299.551 C 296.400 299.206,296.046 298.604,295.614 298.213 C 292.926 295.780,293.077 291.480,295.963 288.306 C 297.016 287.148,298.092 285.795,298.353 285.300 C 298.861 284.338,298.656 284.029,298.120 284.947 M285.015 318.300 C 279.303 324.075,274.406 328.800,274.133 328.800 C 273.859 328.800,272.772 328.302,271.718 327.693 C 270.663 327.083,268.900 326.164,267.800 325.649 C 266.700 325.134,265.487 324.552,265.105 324.356 C 264.723 324.160,264.084 324.000,263.685 324.000 C 263.286 324.000,262.789 323.851,262.580 323.670 C 262.371 323.488,261.390 323.095,260.400 322.798 C 259.410 322.500,258.420 322.133,258.200 321.982 C 257.980 321.831,257.080 321.595,256.200 321.456 C 255.320 321.317,253.700 321.015,252.600 320.785 C 251.500 320.554,248.170 320.197,245.200 319.991 C 242.230 319.785,239.350 319.520,238.800 319.402 C 237.840 319.196,237.831 319.212,238.576 319.794 C 239.145 320.237,240.378 320.402,243.176 320.408 C 245.279 320.412,248.440 320.684,250.200 321.012 C 251.960 321.341,254.303 321.771,255.407 321.968 C 256.512 322.166,258.492 322.714,259.807 323.186 C 261.123 323.658,263.010 324.318,264.000 324.653 C 264.990 324.988,267.768 326.249,270.173 327.455 L 274.545 329.649 284.299 319.924 C 293.148 311.102,295.953 308.096,295.544 307.877 C 295.465 307.835,290.727 312.525,285.015 318.300 M291.800 331.261 C 290.641 331.895,284.800 337.701,284.800 338.221 C 284.800 338.462,285.565 339.662,286.500 340.887 C 287.435 342.111,288.507 343.672,288.881 344.356 C 289.601 345.670,290.400 346.008,290.400 345.000 C 290.400 344.670,290.130 344.400,289.800 344.400 C 289.470 344.400,289.200 344.164,289.200 343.875 C 289.200 343.587,288.885 343.002,288.500 342.575 C 287.393 341.349,285.600 338.599,285.600 338.128 C 285.600 337.891,287.228 336.146,289.217 334.249 C 291.206 332.352,292.781 330.805,292.717 330.812 C 292.653 330.819,292.240 331.021,291.800 331.261 M234.800 333.632 C 232.710 333.795,230.100 334.142,229.000 334.403 C 227.900 334.665,226.370 335.021,225.600 335.195 C 211.627 338.353,199.987 349.615,200.004 359.960 C 200.030 375.592,222.227 388.738,244.786 386.483 C 273.074 383.655,288.655 363.362,274.900 347.262 C 269.955 341.474,261.195 336.580,252.600 334.804 C 251.280 334.531,249.660 334.165,249.000 333.990 C 247.169 333.505,239.060 333.300,234.800 333.632 M248.200 334.632 C 254.720 335.772,255.378 335.920,257.800 336.793 C 261.573 338.153,267.429 341.109,268.722 342.306 C 269.023 342.584,269.929 343.304,270.735 343.906 C 273.831 346.217,278.000 351.672,278.000 353.412 C 278.000 353.735,278.139 354.000,278.309 354.000 C 279.576 354.000,279.901 361.350,278.785 364.749 C 277.198 369.585,275.066 372.489,269.820 376.957 C 265.377 380.743,252.529 385.557,246.694 385.624 C 245.542 385.637,243.700 385.808,242.600 386.004 C 240.594 386.361,235.463 386.003,229.800 385.112 C 224.346 384.253,213.598 380.042,211.600 377.981 C 211.270 377.641,210.370 376.925,209.600 376.390 C 203.577 372.207,199.590 363.657,200.782 357.482 C 202.481 348.684,210.292 341.107,222.000 336.899 C 224.505 335.999,225.711 335.716,231.800 334.600 C 235.798 333.867,243.912 333.883,248.200 334.632 " stroke="none" fill="#8a9ea3" fill-rule="evenodd"></path></g></svg>